<!DOCTYPE svg PUBLIC "-//W3C//DTD SVG 20010904//EN" "http://www.w3.org/TR/2001/REC-SVG-20010904/DTD/svg10.dtd">
<svg version="1.0" xmlns="http://www.w3.org/2000/svg" width="224px" height="106px" viewBox="0 0 2240 1060" preserveAspectRatio="xMidYMid meet">
<g id="layer101" fill="#d66060" stroke="none">
 <path d="M1634 710 c4 -71 6 -130 3 -130 -2 0 -19 14 -37 30 -38 34 -98 41 -124 15 -20 -20 -22 -20 -62 20 -31 31 -41 35 -86 35 l-51 0 5 -81 c3 -44 9 -84 14 -87 5 -4 16 -20 24 -37 31 -61 69 -85 134 -85 69 0 76 5 76 61 0 27 -4 49 -10 49 -14 0 -12 39 3 54 9 10 16 10 24 2 6 -6 28 -22 47 -36 20 -14 41 -37 48 -52 10 -22 20 -28 45 -28 30 0 33 3 33 30 0 17 5 30 10 30 6 0 10 -6 10 -13 0 -16 42 -57 58 -57 7 0 12 -4 12 -10 0 -5 24 -10 54 -10 62 0 66 5 66 86 0 30 5 54 10 54 6 0 10 -6 10 -14 0 -7 15 -20 32 -27 35 -14 74 -52 83 -81 8 -23 83 -25 91 -3 7 18 -22 85 -37 85 -6 0 6 17 25 38 32 33 36 42 36 94 0 74 -28 108 -95 116 l-45 5 0 -36 c0 -31 4 -36 30 -42 47 -10 49 -41 6 -81 -33 -31 -38 -32 -68 -22 -18 7 -38 17 -44 23 -6 6 -33 22 -60 35 -27 14 -52 29 -56 34 -3 5 -34 12 -67 14 -57 4 -61 3 -61 -18 0 -22 21 -50 38 -50 5 0 22 -11 38 -25 16 -14 32 -25 36 -25 7 0 28 -56 28 -76 0 -8 -5 -14 -10 -14 -14 0 -80 72 -80 87 0 7 -5 13 -10 13 -6 0 -14 8 -17 18 -4 9 -12 22 -19 29 -6 6 -15 57 -18 112 l-8 101 -35 0 -36 0 7 -130z m-244 -145 c0 -6 8 -18 18 -27 28 -26 52 -61 52 -77 0 -9 -16 1 -40 25 -22 21 -40 44 -40 51 0 6 -4 13 -9 15 -5 2 -13 16 -17 32 -7 28 -7 28 15 10 11 -10 21 -23 21 -29z"/>
 <path d="M1136 708 c-3 -13 -6 -54 -6 -91 0 -67 -12 -97 -39 -97 -12 0 -51 36 -51 48 0 4 -11 17 -24 30 -31 29 -72 29 -87 0 -7 -13 -18 -29 -26 -36 -7 -7 -13 -20 -13 -28 0 -8 -4 -14 -9 -14 -5 0 -13 -19 -17 -42 -4 -24 -9 -35 -12 -25 -2 9 -7 17 -12 17 -5 0 -12 25 -15 55 -4 30 -11 55 -16 55 -5 0 -9 27 -9 60 l0 60 -57 -3 c-38 -1 -58 2 -60 11 -3 8 -27 12 -73 12 -62 0 -68 -2 -74 -22 -8 -30 -7 -139 0 -205 7 -53 7 -53 41 -53 l35 0 -7 99 c-5 71 -4 101 5 106 19 12 56 -3 69 -29 8 -13 24 -27 36 -30 20 -5 25 -16 35 -76 6 -38 16 -70 20 -70 5 0 12 -26 16 -57 8 -72 17 -83 65 -83 36 0 40 3 46 30 3 17 9 30 13 30 4 0 12 25 19 55 7 30 16 55 21 55 4 0 10 9 13 21 8 28 28 20 40 -16 6 -16 23 -41 39 -55 15 -13 28 -29 28 -35 0 -6 13 -22 28 -35 16 -14 35 -40 43 -57 12 -30 18 -33 56 -33 41 0 43 2 43 29 0 16 -5 31 -12 33 -8 3 -14 39 -16 111 -2 59 -8 107 -13 107 -5 0 -9 24 -9 54 0 39 4 55 15 60 9 3 15 19 15 41 0 34 -1 35 -39 35 -32 0 -40 -4 -45 -22z"/>
 <path d="M70 689 c0 -64 24 -259 32 -259 4 0 8 -26 8 -57 0 -90 6 -103 47 -103 l35 0 -3 103 -4 102 80 -4 c44 -1 85 -7 91 -12 6 -5 9 -22 6 -38 -3 -21 2 -35 17 -47 16 -15 21 -30 21 -71 l0 -53 40 0 c35 0 40 3 40 23 0 51 -25 227 -32 227 -4 0 -8 42 -8 94 0 118 -3 126 -47 126 l-36 0 5 -91 6 -92 -101 6 c-65 4 -103 11 -109 19 -4 7 -8 39 -8 70 0 77 -6 88 -46 88 -31 0 -34 -2 -34 -31z"/>
 <path d="M580 350 c0 -11 -7 -23 -15 -26 -9 -4 -15 -19 -15 -35 0 -26 4 -29 30 -29 18 0 33 6 36 15 4 8 17 15 30 15 21 0 24 5 24 34 0 37 -12 46 -61 46 -22 0 -29 -5 -29 -20z"/>
 </g>
<g id="layer102" fill="#e18c8c" stroke="none">
 <path d="M1674 818 c3 -13 6 -27 6 -31 0 -5 5 -5 10 -2 17 10 12 55 -6 55 -12 0 -15 -6 -10 -22z"/>
 <path d="M1630 738 c0 -27 5 -48 10 -48 13 0 13 60 0 80 -7 11 -10 2 -10 -32z"/>
 <path d="M2040 747 c0 -13 7 -15 30 -10 27 5 36 0 70 -36 31 -33 40 -38 40 -23 0 35 -47 74 -96 80 -36 4 -44 2 -44 -11z"/>
 <path d="M1690 702 c0 -26 5 -53 12 -60 7 -7 9 -12 5 -12 -15 0 35 -82 77 -126 52 -54 89 -58 94 -10 7 57 -38 120 -101 141 -25 8 -31 16 -30 33 2 14 -3 22 -12 22 -9 0 -15 -9 -15 -21 0 -21 21 -49 38 -49 5 0 22 -11 38 -25 16 -14 32 -25 36 -25 7 0 28 -56 28 -76 0 -8 -5 -14 -10 -14 -14 0 -80 71 -80 86 0 7 -7 14 -15 18 -8 3 -15 10 -15 16 0 6 -7 18 -15 26 -10 10 -15 35 -15 70 0 30 -4 54 -10 54 -5 0 -10 -22 -10 -48z"/>
 <path d="M1195 710 c4 -12 2 -27 -5 -35 -12 -15 3 -31 20 -20 17 11 12 75 -6 75 -11 0 -14 -6 -9 -20z"/>
 <path d="M70 665 c0 -31 4 -55 10 -55 6 0 10 17 9 38 -1 20 1 45 5 55 6 12 4 17 -8 17 -13 0 -16 -11 -16 -55z"/>
 <path d="M124 698 c3 -13 6 -44 6 -70 0 -27 5 -48 10 -48 11 0 14 98 4 124 -9 25 -27 19 -20 -6z"/>
 <path d="M360 705 c0 -8 5 -15 10 -15 6 0 10 7 10 15 0 8 -4 15 -10 15 -5 0 -10 -7 -10 -15z"/>
 <path d="M400 711 c0 -6 5 -13 10 -16 6 -3 10 -39 11 -78 0 -40 4 -81 9 -92 10 -23 14 153 4 179 -7 17 -34 22 -34 7z"/>
 <path d="M534 685 c-8 -44 2 -57 16 -21 5 15 17 29 25 32 23 9 18 24 -10 24 -20 0 -25 -6 -31 -35z"/>
 <path d="M640 710 c0 -5 5 -10 11 -10 6 0 28 -14 48 -32 33 -29 36 -30 40 -12 2 10 7 24 12 30 5 6 -4 10 -28 10 -20 0 -38 5 -41 12 -4 14 -42 16 -42 2z"/>
 <path d="M2040 705 c0 -8 5 -15 10 -15 6 0 10 7 10 15 0 8 -4 15 -10 15 -5 0 -10 -7 -10 -15z"/>
 <path d="M1130 668 c0 -25 3 -29 10 -18 13 20 13 50 0 50 -5 0 -10 -15 -10 -32z"/>
 <path d="M2075 690 c-3 -5 1 -10 9 -10 8 0 18 -10 21 -21 6 -17 -1 -29 -29 -55 -33 -31 -38 -32 -68 -22 -18 7 -38 17 -44 23 -6 6 -33 22 -60 35 -27 14 -51 28 -54 32 -4 4 -22 11 -40 14 -51 10 -31 -7 85 -69 55 -29 109 -59 120 -66 19 -12 26 -8 73 37 29 28 52 55 52 61 0 13 -36 51 -49 51 -6 0 -13 -4 -16 -10z"/>
 <path d="M1280 648 l0 -33 20 25 c25 32 25 40 0 40 -16 0 -20 -7 -20 -32z"/>
 <path d="M1350 670 c0 -5 13 -16 28 -24 16 -8 41 -31 56 -50 30 -40 46 -46 46 -17 0 10 7 24 15 31 8 7 15 16 15 21 0 14 -17 11 -34 -6 -21 -22 -29 -19 -63 20 -30 33 -63 47 -63 25z"/>
 <path d="M360 626 c0 -25 5 -46 10 -46 6 0 10 18 10 39 0 22 -4 43 -10 46 -6 4 -10 -12 -10 -39z"/>
 <path d="M579 649 c-10 -20 -9 -52 7 -126 12 -61 24 -34 18 41 -5 52 -3 75 5 81 20 12 57 -3 70 -29 8 -13 24 -27 36 -30 20 -5 25 -16 35 -76 6 -38 16 -70 22 -70 7 0 8 16 4 43 -15 92 -24 111 -77 150 -59 43 -102 49 -120 16z"/>
 <path d="M1638 619 l-3 -40 -34 30 c-37 33 -46 37 -56 22 -3 -6 5 -15 17 -22 13 -6 40 -27 61 -47 l37 -36 0 67 c0 73 -17 93 -22 26z"/>
 <path d="M1323 613 c-15 -38 105 -202 140 -190 14 4 23 57 9 57 -5 0 -9 6 -9 14 0 23 -42 83 -77 110 -40 30 -54 32 -63 9z m67 -48 c0 -6 8 -18 18 -27 28 -26 52 -61 52 -77 0 -9 -16 1 -40 25 -22 21 -40 44 -40 51 0 6 -4 13 -9 15 -5 2 -13 16 -17 32 -7 28 -7 28 15 10 11 -10 21 -23 21 -29z"/>
 <path d="M791 608 c-1 -19 24 -144 41 -200 13 -45 24 -41 38 15 16 59 70 168 88 175 17 6 41 -19 126 -137 33 -44 64 -81 69 -81 10 0 -1 164 -14 195 -7 19 -8 19 -8 -3 -1 -25 -22 -52 -40 -52 -12 0 -51 36 -51 48 0 4 -11 17 -24 30 -31 29 -72 29 -87 0 -7 -13 -18 -29 -26 -36 -7 -7 -13 -20 -13 -28 0 -8 -4 -14 -9 -14 -5 0 -13 -19 -17 -42 -4 -24 -9 -35 -12 -25 -2 9 -7 17 -12 17 -5 0 -12 25 -15 55 -4 30 -11 55 -15 55 -5 0 -11 10 -13 23 -3 13 -5 15 -6 5z"/>
 <path d="M2123 570 c-24 -26 -43 -51 -43 -57 0 -5 11 -20 25 -33 14 -13 25 -34 25 -47 0 -26 17 -31 26 -8 7 18 -22 85 -37 85 -6 0 6 17 25 38 32 33 48 74 29 71 -5 -1 -27 -22 -50 -49z"/>
 <path d="M1284 565 c3 -27 10 -51 14 -54 4 -4 14 -19 22 -36 28 -56 86 -95 122 -83 7 3 -4 13 -24 22 -42 20 -104 105 -114 156 -11 53 -28 49 -20 -5z"/>
 <path d="M80 560 c0 -22 5 -40 10 -40 6 0 10 18 10 40 0 22 -4 40 -10 40 -5 0 -10 -18 -10 -40z"/>
 <path d="M530 568 c0 -66 14 -128 27 -128 10 0 13 6 9 16 -3 9 -9 40 -12 70 -7 55 -24 85 -24 42z"/>
 <path d="M1516 574 c-4 -9 -3 -20 0 -23 4 -3 9 0 11 6 4 10 7 10 18 0 8 -6 30 -23 49 -37 20 -14 41 -37 48 -52 12 -27 38 -39 38 -18 0 18 -122 140 -140 140 -10 0 -21 -7 -24 -16z"/>
 <path d="M1880 580 c0 -5 4 -10 9 -10 5 0 14 -14 20 -32 13 -35 15 -35 25 6 6 23 4 27 -8 23 -10 -4 -16 -1 -16 8 0 8 -7 15 -15 15 -8 0 -15 -4 -15 -10z"/>
 <path d="M146 562 c-12 -20 4 -32 45 -32 21 0 39 5 39 10 0 6 -15 10 -34 10 -19 0 -36 5 -38 12 -3 9 -6 9 -12 0z"/>
 <path d="M1694 504 c1 -44 5 -64 14 -64 7 0 12 13 12 30 0 17 5 30 10 30 6 0 10 -6 10 -12 0 -15 43 -58 58 -58 6 0 12 -5 14 -11 2 -6 12 -10 21 -8 13 3 5 13 -30 39 -27 19 -57 52 -68 73 -31 58 -42 53 -41 -19z"/>
 <path d="M1950 542 c0 -13 11 -24 31 -33 37 -15 75 -50 84 -79 6 -19 45 -29 45 -12 0 12 -91 101 -127 123 -33 21 -33 21 -33 1z"/>
 <path d="M333 543 c-48 -5 -57 -19 -15 -25 38 -5 59 1 66 18 3 8 2 13 -2 12 -4 -1 -26 -3 -49 -5z"/>
 <path d="M936 488 c-16 -35 -32 -71 -37 -80 -5 -10 -9 -26 -9 -36 0 -10 -7 -27 -15 -38 -19 -25 -19 -34 0 -34 9 0 18 12 22 30 3 17 9 30 13 30 4 0 12 25 19 55 7 30 16 55 21 55 4 0 10 9 13 21 8 28 28 20 40 -16 6 -16 23 -41 39 -55 15 -13 28 -29 28 -35 0 -6 13 -22 28 -35 16 -14 35 -40 43 -57 13 -30 39 -46 39 -24 0 12 -62 102 -119 173 -25 31 -54 68 -64 82 -10 14 -21 26 -26 26 -4 0 -20 -28 -35 -62z"/>
 <path d="M1186 532 c-8 -13 6 -122 15 -122 5 0 9 29 9 65 0 58 -9 80 -24 57z"/>
 <path d="M1506 487 c3 -33 -1 -55 -12 -72 -16 -25 -10 -31 20 -19 12 4 16 20 16 55 0 27 -4 49 -9 49 -5 0 -12 8 -14 18 -3 9 -3 -4 -1 -31z"/>
 <path d="M90 470 c0 -29 4 -40 15 -40 16 0 19 20 9 58 -10 36 -24 25 -24 -18z"/>
 <path d="M433 484 c-3 -8 -1 -32 5 -52 6 -21 14 -70 18 -110 4 -39 11 -72 15 -72 12 0 11 26 -3 148 -12 97 -21 121 -35 86z"/>
 <path d="M157 477 c-7 -18 3 -67 14 -67 5 0 9 11 9 24 0 13 3 31 6 40 4 10 1 16 -9 16 -8 0 -17 -6 -20 -13z"/>
 <path d="M220 480 c0 -5 25 -10 55 -10 30 0 55 5 55 10 0 6 -25 10 -55 10 -30 0 -55 -4 -55 -10z"/>
 <path d="M350 471 c0 -5 4 -12 8 -15 5 -3 7 -18 4 -34 -4 -28 17 -62 39 -62 13 0 11 61 -4 90 -12 25 -47 40 -47 21z"/>
 <path d="M1902 451 c-27 -37 -27 -41 -2 -41 13 0 22 9 26 25 10 41 0 48 -24 16z"/>
 <path d="M780 411 c0 -12 5 -21 10 -21 6 0 10 6 10 14 0 8 -4 18 -10 21 -5 3 -10 -3 -10 -14z"/>
 <path d="M110 360 c0 -67 13 -90 50 -90 l30 0 0 65 c0 40 -4 65 -11 65 -7 0 -9 -18 -7 -47 3 -43 1 -48 -19 -51 -21 -3 -23 0 -23 47 0 27 -4 53 -10 56 -6 4 -10 -13 -10 -45z"/>
 <path d="M790 351 c0 -16 7 -34 15 -41 19 -16 34 -5 17 12 -7 7 -12 22 -12 35 0 13 -4 23 -10 23 -5 0 -10 -13 -10 -29z"/>
 <path d="M580 350 c0 -11 -7 -23 -15 -26 -9 -4 -15 -19 -15 -35 0 -26 4 -29 30 -29 34 0 49 22 30 45 -7 8 -10 26 -6 40 5 18 2 25 -9 25 -8 0 -15 -9 -15 -20z"/>
 <path d="M620 361 c0 -5 5 -11 11 -13 6 -2 12 -16 12 -31 0 -16 5 -27 13 -27 20 0 19 66 -2 74 -22 9 -34 7 -34 -3z"/>
 <path d="M1203 310 c2 -40 5 -50 20 -50 12 0 17 8 17 30 0 17 -4 30 -10 30 -5 0 -10 9 -10 20 0 11 -4 20 -10 20 -5 0 -8 -22 -7 -50z"/>
 <path d="M400 290 c0 -30 4 -40 16 -40 11 0 14 5 10 16 -3 9 -6 27 -6 40 0 13 -4 24 -10 24 -5 0 -10 -18 -10 -40z"/>
 </g>
<g id="layer103" fill="#eebfbf" stroke="none">
 <path d="M2040 751 c0 -5 16 -9 35 -9 19 0 35 4 35 9 0 5 -16 9 -35 9 -19 0 -35 -4 -35 -9z"/>
 <path d="M1697 743 c-11 -10 -8 -63 3 -63 6 0 10 16 10 35 0 36 -2 40 -13 28z"/>
 <path d="M2120 744 c0 -3 13 -19 30 -37 16 -18 30 -27 30 -21 0 6 -11 23 -25 38 -23 25 -35 32 -35 20z"/>
 <path d="M70 705 c0 -9 6 -12 15 -9 8 4 15 10 15 15 0 5 -7 9 -15 9 -8 0 -15 -7 -15 -15z"/>
 <path d="M130 678 c0 -26 5 -50 10 -53 13 -8 13 65 0 85 -7 11 -10 2 -10 -32z"/>
 <path d="M416 703 c4 -10 10 -40 14 -68 l7 -50 2 52 c1 56 -6 83 -21 83 -6 0 -7 -7 -2 -17z"/>
 <path d="M536 698 c-10 -39 -7 -42 19 -14 30 32 31 36 6 36 -11 0 -21 -9 -25 -22z"/>
 <path d="M650 710 c0 -5 6 -10 13 -10 8 0 22 -9 32 -20 21 -23 45 -26 45 -6 0 8 -13 17 -30 21 -16 4 -30 11 -30 16 0 5 -7 9 -15 9 -8 0 -15 -4 -15 -10z"/>
 <path d="M1800 682 c0 -10 120 -72 139 -72 6 0 11 -3 11 -8 0 -4 19 -18 43 -31 l42 -23 49 44 c38 36 47 49 42 66 -7 21 -42 39 -53 28 -4 -3 1 -6 10 -6 8 0 19 -9 22 -21 5 -15 -2 -29 -27 -55 -33 -32 -36 -33 -69 -22 -19 6 -39 17 -45 23 -6 6 -33 22 -60 35 -27 14 -51 28 -54 31 -9 12 -50 20 -50 11z"/>
 <path d="M1195 669 c-4 -6 -5 -13 -2 -16 7 -7 27 6 27 18 0 12 -17 12 -25 -2z"/>
 <path d="M1280 659 c0 -18 2 -19 15 -9 8 7 15 16 15 21 0 5 -7 9 -15 9 -9 0 -15 -9 -15 -21z"/>
 <path d="M1360 670 c0 -5 5 -10 11 -10 6 0 30 -21 55 -46 38 -40 45 -44 50 -28 4 11 14 27 22 37 18 21 0 23 -22 2 -21 -22 -29 -19 -63 20 -31 34 -53 45 -53 25z"/>
 <path d="M590 651 c-13 -25 -13 -88 0 -96 6 -4 10 12 10 40 0 38 4 48 20 52 26 7 26 23 0 23 -10 0 -24 -9 -30 -19z"/>
 <path d="M662 636 c10 -9 21 -23 25 -30 9 -15 53 -31 52 -19 0 10 -51 51 -75 60 -18 7 -18 6 -2 -11z"/>
 <path d="M1550 633 c1 -7 84 -74 102 -81 5 -2 8 6 8 18 0 15 -5 20 -14 17 -8 -3 -29 8 -47 24 -32 29 -49 36 -49 22z"/>
 <path d="M1731 624 c-18 -21 -6 -30 14 -11 8 9 15 18 15 21 0 11 -15 5 -29 -10z"/>
 <path d="M1335 620 c-23 -38 99 -213 128 -184 3 3 -15 24 -39 47 -24 23 -44 47 -44 53 0 7 -4 14 -9 16 -5 2 -13 17 -17 33 l-7 30 22 -19 c11 -11 21 -24 21 -30 0 -7 8 -19 18 -28 9 -8 25 -26 36 -39 l18 -24 -7 25 c-17 54 -106 143 -120 120z"/>
 <path d="M1770 624 c0 -8 53 -54 62 -54 7 0 28 -56 28 -76 0 -8 -5 -14 -10 -14 -14 0 -80 71 -80 86 0 10 -21 24 -36 24 -3 0 3 -14 13 -31 24 -41 79 -89 103 -89 20 0 38 38 24 49 -5 3 -9 11 -9 16 -1 24 -29 63 -55 78 -30 18 -40 21 -40 11z"/>
 <path d="M360 600 c0 -19 3 -21 12 -12 9 9 9 15 0 24 -9 9 -12 7 -12 -12z"/>
 <path d="M929 598 c-7 -13 -18 -29 -26 -36 -7 -7 -13 -20 -13 -28 0 -8 -4 -14 -10 -14 -5 0 -10 -7 -10 -15 0 -28 15 -15 39 35 39 79 77 79 126 2 45 -72 99 -141 110 -141 11 -1 4 134 -7 145 -3 3 -13 -2 -21 -11 -9 -8 -20 -15 -26 -15 -12 0 -51 36 -51 48 0 4 -11 17 -24 30 -31 29 -72 29 -87 0z"/>
 <path d="M2128 565 l-46 -45 29 -31 c16 -17 29 -42 29 -56 0 -13 4 -22 8 -19 17 11 -8 96 -28 96 -6 0 5 17 24 38 20 20 36 43 36 50 0 17 1 17 -52 -33z"/>
 <path d="M800 560 c0 -11 5 -20 10 -20 6 0 10 9 10 20 0 11 -4 20 -10 20 -5 0 -10 -9 -10 -20z"/>
 <path d="M1536 565 c3 -8 13 -17 23 -20 9 -3 34 -22 56 -42 34 -33 37 -34 21 -10 -35 56 -116 114 -100 72z"/>
 <path d="M80 545 c0 -14 5 -25 10 -25 6 0 10 11 10 25 0 14 -4 25 -10 25 -5 0 -10 -11 -10 -25z"/>
 <path d="M151 559 c-1 -11 10 -19 30 -23 42 -8 49 -8 49 4 0 6 -15 10 -34 10 -19 0 -37 6 -39 13 -4 7 -6 6 -6 -4z"/>
 <path d="M1704 496 c1 -66 11 -73 19 -13 4 28 2 46 -7 55 -11 12 -13 5 -12 -42z"/>
 <path d="M1950 538 c0 -7 15 -20 32 -27 18 -8 40 -24 50 -35 9 -12 19 -18 23 -14 9 8 -31 46 -74 71 -23 14 -31 15 -31 5z"/>
 <path d="M320 530 c0 -5 14 -10 31 -10 17 0 28 4 24 10 -3 6 -17 10 -31 10 -13 0 -24 -4 -24 -10z"/>
 <path d="M590 525 c0 -8 5 -15 10 -15 6 0 10 7 10 15 0 8 -4 15 -10 15 -5 0 -10 -7 -10 -15z"/>
 <path d="M957 516 c-9 -13 -18 -35 -20 -47 -2 -13 -2 -18 0 -11 3 6 8 12 13 12 4 0 10 10 13 21 4 15 11 20 21 16 20 -8 21 7 2 22 -10 9 -17 6 -29 -13z"/>
 <path d="M1190 505 c0 -19 5 -35 10 -35 6 0 10 16 10 35 0 19 -4 35 -10 35 -5 0 -10 -16 -10 -35z"/>
 <path d="M1290 525 c0 -8 3 -15 8 -15 4 0 13 -14 21 -32 16 -35 39 -61 70 -77 33 -18 48 -12 19 7 -29 19 -98 104 -98 121 0 6 -4 11 -10 11 -5 0 -10 -7 -10 -15z"/>
 <path d="M750 500 c0 -19 3 -21 12 -12 9 9 9 15 0 24 -9 9 -12 7 -12 -12z"/>
 <path d="M810 513 c0 -5 5 -15 10 -23 8 -12 10 -11 10 8 0 12 -4 22 -10 22 -5 0 -10 -3 -10 -7z"/>
 <path d="M93 473 c1 -24 5 -43 10 -43 9 0 8 40 -3 65 -7 15 -9 9 -7 -22z"/>
 <path d="M440 470 c0 -16 5 -30 10 -30 6 0 10 14 10 30 0 17 -4 30 -10 30 -5 0 -10 -13 -10 -30z"/>
 <path d="M1510 480 c0 -11 5 -20 10 -20 6 0 10 9 10 20 0 11 -4 20 -10 20 -5 0 -10 -9 -10 -20z"/>
 <path d="M167 483 c-11 -10 -8 -53 3 -53 6 0 10 6 10 14 0 8 3 21 6 30 6 16 -7 22 -19 9z"/>
 <path d="M225 480 c-4 -6 8 -10 30 -10 22 0 34 4 30 10 -3 6 -17 10 -30 10 -13 0 -27 -4 -30 -10z"/>
 <path d="M1006 468 c4 -12 20 -33 35 -47 16 -14 29 -30 29 -36 0 -6 13 -22 28 -35 16 -14 35 -40 43 -57 14 -34 29 -43 29 -19 0 16 -151 215 -163 216 -5 0 -5 -10 -1 -22z"/>
 <path d="M1740 484 c0 -14 50 -58 57 -50 3 3 4 7 2 9 -2 1 -16 13 -31 26 -16 14 -28 20 -28 15z"/>
 <path d="M540 461 c0 -12 5 -21 10 -21 6 0 10 6 10 14 0 8 -4 18 -10 21 -5 3 -10 -3 -10 -14z"/>
 <path d="M357 458 c4 -7 6 -25 5 -39 -2 -15 5 -34 15 -45 17 -17 18 -17 21 19 4 42 -12 77 -34 77 -10 0 -12 -5 -7 -12z"/>
 <path d="M830 450 c0 -11 5 -20 10 -20 6 0 8 -12 5 -27 -5 -24 -5 -25 5 -10 12 19 4 77 -11 77 -5 0 -9 -9 -9 -20z"/>
 <path d="M1907 440 c-21 -25 -21 -30 -3 -30 8 0 18 9 21 21 9 29 2 32 -18 9z"/>
 <path d="M2064 434 c3 -9 6 -18 6 -20 0 -2 7 -4 15 -4 18 0 19 12 3 28 -17 17 -31 15 -24 -4z"/>
 <path d="M910 415 c0 -8 5 -15 10 -15 6 0 10 7 10 15 0 8 -4 15 -10 15 -5 0 -10 -7 -10 -15z"/>
 <path d="M1500 415 c-7 -9 -11 -18 -8 -20 9 -10 38 7 38 21 0 18 -14 18 -30 -1z"/>
 <path d="M450 390 c0 -11 5 -20 10 -20 6 0 10 9 10 20 0 11 -4 20 -10 20 -5 0 -10 -9 -10 -20z"/>
 <path d="M900 375 c0 -8 5 -15 10 -15 6 0 10 7 10 15 0 8 -4 15 -10 15 -5 0 -10 -7 -10 -15z"/>
 <path d="M580 355 c0 -8 5 -15 10 -15 6 0 10 7 10 15 0 8 -4 15 -10 15 -5 0 -10 -7 -10 -15z"/>
 <path d="M642 350 c15 -23 28 -26 28 -6 0 8 -7 17 -16 20 -24 9 -25 8 -12 -14z"/>
 <path d="M110 330 c0 -18 4 -29 10 -25 6 3 10 15 10 25 0 10 -4 22 -10 25 -6 4 -10 -7 -10 -25z"/>
 <path d="M790 336 c0 -8 6 -16 14 -19 10 -4 12 0 9 14 -6 22 -23 26 -23 5z"/>
 <path d="M882 328 c-14 -14 -16 -28 -3 -28 9 0 24 30 18 36 -2 2 -9 -2 -15 -8z"/>
 <path d="M563 323 c-7 -2 -13 -18 -13 -34 0 -25 4 -29 29 -29 39 0 46 14 24 45 -19 26 -21 26 -40 18z"/>
 <path d="M1220 306 c0 -8 -3 -21 -6 -30 -4 -11 -1 -16 10 -16 11 0 16 9 16 30 0 17 -4 30 -10 30 -5 0 -10 -6 -10 -14z"/>
 <path d="M166 291 c-3 -5 -16 -7 -28 -3 -14 3 -19 2 -14 -6 11 -18 66 -15 66 3 0 16 -16 20 -24 6z"/>
 </g>
<g id="layer104" fill="#fefbfb" stroke="none">
 <path d="M1890 641 c0 -10 30 -24 37 -17 3 2 -5 9 -16 16 -12 6 -21 7 -21 1z"/>
 <path d="M670 633 c1 -15 30 -47 37 -40 3 4 -3 16 -15 27 -12 12 -22 17 -22 13z"/>
 <path d="M1795 600 c-3 -5 -2 -10 3 -10 4 0 18 -9 30 -20 12 -12 22 -17 22 -13 -1 16 -48 54 -55 43z"/>
 <path d="M1014 581 c21 -23 26 -26 26 -11 0 5 -10 15 -22 21 -23 12 -23 12 -4 -10z"/>
 <path d="M2137 561 c-24 -24 -35 -43 -32 -54 7 -18 35 -31 35 -16 0 5 -7 12 -15 15 -11 5 -6 14 20 42 19 21 35 40 35 45 0 10 -1 9 -43 -32z"/>
 <path d="M1390 562 c0 -4 9 -15 20 -25 23 -19 26 -11 6 16 -14 18 -26 22 -26 9z"/>
 <path d="M1046 538 c4 -7 22 -32 41 -55 18 -23 33 -46 33 -52 0 -6 5 -11 10 -11 13 0 13 91 -1 110 -8 11 -12 12 -16 3 -7 -18 -40 -16 -47 2 -3 8 -10 15 -16 15 -6 0 -8 -6 -4 -12z"/>
 <path d="M1770 546 c0 -2 14 -20 30 -38 17 -18 30 -28 30 -23 0 6 -13 23 -30 38 -16 16 -30 26 -30 23z"/>
 <path d="M1390 502 c0 -10 60 -66 65 -60 4 4 -53 68 -61 68 -2 0 -4 -3 -4 -8z"/>
 <path d="M357 460 c6 -7 9 -19 6 -26 -7 -20 5 -61 19 -67 24 -9 9 77 -15 92 -16 10 -19 10 -10 1z"/>
 <path d="M1010 455 c0 -9 38 -43 43 -38 3 2 -3 13 -14 24 -19 19 -29 24 -29 14z"/>
 <path d="M1330 455 c0 -6 50 -55 56 -55 8 0 3 8 -21 34 -23 25 -35 32 -35 21z"/>
 <path d="M1070 382 c0 -4 9 -15 20 -25 11 -9 20 -12 20 -7 0 6 -7 13 -15 16 -8 4 -12 10 -9 15 3 5 0 9 -5 9 -6 0 -11 -3 -11 -8z"/>
 <path d="M562 322 c-7 -2 -12 -17 -12 -33 0 -25 4 -29 29 -29 17 0 32 4 36 9 7 13 -39 58 -53 53z"/>
 </g>

</svg>