<!DOCTYPE svg PUBLIC "-//W3C//DTD SVG 20010904//EN" "http://www.w3.org/TR/2001/REC-SVG-20010904/DTD/svg10.dtd">
<svg version="1.0" xmlns="http://www.w3.org/2000/svg" width="800px" height="539px" viewBox="0 0 8000 5390" preserveAspectRatio="xMidYMid meet">
<g id="layer101" fill="#d55a5a" stroke="none">
 <path d="M0 2695 l0 -2695 4000 0 4000 0 0 2695 0 2695 -4000 0 -4000 0 0 -2695z"/>
 </g>
<g id="layer102" fill="#08a5ec" stroke="none">
 <path d="M1235 5248 c-3 -7 -6 -137 -7 -288 l-3 -275 -135 -3 c-92 -2 -137 -6 -142 -15 -4 -7 -8 -218 -8 -469 l0 -458 -237 -2 -238 -3 -3 -887 -2 -888 390 0 391 0 -3 -87 -3 -88 -140 -5 -140 -5 0 -515 0 -515 453 -3 452 -2 0 175 0 175 870 0 870 0 0 -263 0 -264 992 -6 c1244 -9 2186 -9 2227 -1 l31 6 2 237 3 236 147 3 c143 2 148 3 153 25 3 12 4 213 3 447 l-3 425 -153 3 c-134 2 -153 5 -148 18 3 9 6 56 6 105 l0 89 305 0 c296 0 305 1 315 20 8 15 10 250 8 801 -3 680 -5 781 -18 790 -25 17 -139 4 -155 -17 -12 -17 -32 -20 -155 -24 -161 -6 -170 -10 -170 -85 0 -72 5 -74 175 -77 l150 -3 -2 -25 c0 -14 3 -297 8 -629 5 -333 7 -606 4 -609 -2 -2 -449 -5 -992 -6 l-988 -1 0 -70 0 -70 666 -3 666 -2 7 -77 c3 -42 6 -100 6 -129 0 -83 2 -84 210 -84 98 0 181 -3 183 -7 2 -5 6 -170 8 -368 l4 -360 -190 -5 -190 -5 -8 -190 c-5 -104 -10 -191 -10 -192 -1 0 -407 -3 -902 -5 l-900 -3 -6 773 c-4 455 -10 777 -16 783 -5 5 -156 8 -368 7 l-360 -3 -8 -54 c-4 -30 -3 -59 1 -63 5 -5 139 -12 299 -15 l290 -6 8 -709 c4 -390 4 -712 1 -716 -10 -10 -968 -24 -978 -14 -4 4 -11 325 -15 713 -6 649 -5 708 10 730 10 14 17 43 17 73 0 43 -4 53 -35 82 -29 29 -41 34 -83 34 -92 0 -86 47 -72 -559 7 -293 9 -535 5 -539 -4 -4 -424 -14 -933 -22 l-927 -15 -5 -175 -5 -175 -320 0 -320 0 -3 410 c-1 226 0 420 3 433 5 22 8 22 153 22 81 0 154 5 162 10 13 8 15 56 15 334 0 178 -4 328 -8 333 -5 4 -38 8 -75 8 -81 0 -80 3 -81 -182 -1 -130 -1 -133 -24 -138 -28 -7 -623 -2 -630 5 -2 3 -6 349 -8 770 l-4 765 170 7 c207 9 213 11 221 46 3 15 7 33 10 40 3 10 33 12 126 10 l123 -3 3 -97 c2 -88 5 -97 23 -103 30 -10 127 4 132 18 2 7 2 69 -1 140 l-4 127 -158 0 -157 0 -6 212 c-4 116 -7 291 -7 388 l0 177 150 5 c96 4 156 10 165 18 12 10 15 56 17 254 l3 241 590 6 c325 4 816 9 1093 12 l502 6 0 -224 c0 -148 4 -226 11 -230 6 -4 232 -6 503 -6 l493 2 6 -77 c4 -42 7 -118 7 -169 0 -57 4 -95 12 -103 14 -14 166 -16 187 -3 7 5 17 33 22 62 7 43 5 56 -8 71 -9 10 -22 18 -28 18 -21 0 -25 26 -25 185 l0 153 -26 6 c-14 4 -245 6 -512 6 l-487 -2 -5 224 -5 223 -1238 3 c-985 2 -1239 0 -1242 -10z"/>
 <path d="M5347 4648 c-13 -10 -17 -33 -19 -102 l-3 -90 -32 -8 c-32 -8 -33 -10 -33 -66 0 -32 5 -63 12 -70 8 -8 47 -12 108 -12 61 0 100 4 108 12 7 7 12 41 12 84 0 45 5 75 13 81 24 20 124 22 952 24 l840 1 3 -138 c1 -83 7 -143 14 -151 8 -10 32 -13 82 -11 l71 3 3 219 c2 169 -1 221 -10 228 -7 4 -484 8 -1059 8 -821 0 -1049 -3 -1062 -12z"/>
 <path d="M1252 3067 c-9 -10 -12 -45 -10 -108 l3 -94 75 0 c74 0 75 0 78 28 l3 27 1078 0 c824 0 1080 -3 1089 -12 7 -7 12 -40 12 -76 l0 -65 61 6 c34 3 66 10 72 16 17 17 22 233 5 252 -12 15 -108 16 -1157 7 -1075 -8 -1145 -8 -1163 9 -26 23 -129 31 -146 10z"/>
 </g>

</svg>