<?xml version="1.0" standalone="no"?>
<!DOCTYPE svg PUBLIC "-//W3C//DTD SVG 20010904//EN"
 "http://www.w3.org/TR/2001/REC-SVG-20010904/DTD/svg10.dtd">
<svg version="1.0" xmlns="http://www.w3.org/2000/svg"
 width="300.000000pt" height="198.000000pt" viewBox="0 0 300.000000 198.000000"
 preserveAspectRatio="xMidYMid meet">
<metadata>
Created by potrace 1.10, written by Peter Selinger 2001-2011
</metadata>
<g transform="translate(0.000000,198.000000) scale(0.100000,-0.100000)"
fill="#000000" stroke="none">
<path d="M747 1973 c414 -2 1092 -2 1505 0 414 1 76 2 -752 2 -828 0 -1166 -1
-753 -2z"/>
<path d="M1490 1830 l0 -110 -293 0 -292 0 3 75 4 75 -156 0 -156 0 2 -217 3
-218 60 -1 c60 -1 60 -1 63 -32 l3 -32 -148 0 -148 0 0 -360 0 -360 83 0 82 0
0 -195 0 -195 51 0 51 0 -4 -115 -3 -115 418 0 417 0 0 100 0 101 178 -2 177
-1 3 90 c3 89 3 90 -23 94 -25 5 -25 5 -25 -68 l0 -74 -175 0 -175 0 0 -95 0
-95 -375 0 -374 0 -3 112 -3 112 -43 0 -43 1 -2 173 -2 172 27 0 c16 0 27 -5
25 -11 -1 -6 8 -13 21 -15 21 -4 22 -1 22 59 0 60 -1 64 -23 62 -18 -1 -21 -7
-19 -28 l3 -27 -110 0 -111 0 0 320 0 320 126 0 126 0 -4 -65 c-4 -62 -3 -65
19 -65 23 0 23 1 23 140 l0 140 -62 0 -63 0 0 175 0 175 108 0 107 0 0 -77 0
-78 315 3 315 3 0 -226 c0 -218 1 -225 20 -225 20 0 20 7 20 330 l0 330 170 0
170 0 0 -300 0 -300 -100 0 c-93 0 -100 -1 -100 -20 0 -19 7 -20 125 -20 l126
0 -3 320 -3 320 305 0 305 0 -3 -88 -3 -88 60 4 61 4 0 -151 0 -151 -58 0 -58
0 4 -70 4 -70 -226 0 -226 0 0 -25 0 -26 330 1 331 1 0 -263 0 -263 -56 3
c-53 4 -55 3 -55 -22 0 -26 1 -26 80 -26 l80 0 0 310 0 310 -110 0 -110 0 0
48 0 47 55 -3 55 -4 0 196 0 196 -55 0 -55 0 0 90 0 90 -540 0 -540 0 0 -110z"/>
<path d="M720 965 l0 -25 405 0 405 0 0 25 0 25 -405 0 -405 0 0 -25z"/>
<path d="M2742 390 l3 -70 -318 0 -319 0 4 55 c3 51 2 55 -19 55 -22 0 -23 -4
-23 -75 l0 -75 360 0 360 0 0 90 0 90 -26 0 c-25 0 -26 -1 -22 -70z"/>
</g>
</svg>
