<!DOCTYPE svg PUBLIC "-//W3C//DTD SVG 20010904//EN" "http://www.w3.org/TR/2001/REC-SVG-20010904/DTD/svg10.dtd">
<svg version="1.0" xmlns="http://www.w3.org/2000/svg" width="800px" height="800px" viewBox="0 0 8000 8000" preserveAspectRatio="xMidYMid meet">
<g id="layer101" fill="#000000" stroke="none">
<path d="M1220 5263 c0 -5 0 -135 0 -290 l1 -282 -143 -3 -143 -3 -3 -472 -2 -473 -223 0 c-158 0 -226 3 -235 12 -6 6 -14 9 -17 7 -2 -3 -6 -411 -7 -907 l-3 -902 393 0 392 0 0 -75 0 -76 -147 2 -148 1 0 -538 0 -539 470 0 470 0 0 182 0 183 858 -1 857 0 0 -269 0 -270 1635 0 1635 0 0 240 0 239 153 3 152 3 3 468 c1 257 -1 467 -6 467 -4 0 -13 -5 -18 -10 -7 -7 -62 -10 -145 -8 l-134 3 0 90 0 90 315 3 315 2 -2 818 c-2 555 -6 817 -13 816 -5 -1 -48 -2 -95 -2 -78 -2 -85 -4 -85 -22 0 -18 -7 -20 -57 -20 -32 0 -102 -3 -155 -7 l-97 -6 -3 -78 -3 -79 55 -1 c30 -1 102 -4 160 -8 l105 -6 9 -612 c5 -337 6 -619 3 -628 -6 -13 -108 -14 -995 -8 l-989 6 -4 -24 c-2 -13 -2 -51 1 -83 l5 -59 665 -5 c366 -2 666 -5 668 -7 2 -2 8 -63 13 -136 6 -74 13 -136 15 -139 3 -3 90 -6 194 -8 l188 -3 7 -82 c3 -45 5 -208 3 -362 l-3 -280 -191 3 -191 4 -6 -34 c-2 -18 -5 -105 -6 -193 -1 -87 -3 -160 -4 -162 -2 -1 -403 -5 -893 -9 l-891 -7 -6 778 c-4 428 -10 781 -13 784 -3 3 -174 7 -380 9 l-374 3 0 -29 c0 -16 -3 -50 -6 -76 l-7 -46 300 0 300 0 6 -38 c4 -20 7 -338 8 -707 l1 -670 -38 -6 c-22 -4 -241 -8 -489 -10 l-450 -4 -6 705 c-6 679 -6 706 12 723 15 14 19 33 19 87 0 65 -1 70 -24 76 -15 3 -26 14 -28 27 -3 19 -9 20 -78 18 -41 -1 -79 -6 -83 -10 -4 -4 -3 -250 3 -546 10 -446 9 -539 -2 -546 -7 -5 -80 -9 -163 -9 -316 -1 -1685 -29 -1695 -35 -6 -4 -10 -75 -10 -181 l0 -174 -310 0 -310 0 2 428 3 427 163 5 c89 3 162 8 162 13 0 4 0 162 0 352 l0 346 -86 -3 -86 -3 -3 -50 c-1 -27 -4 -101 -5 -162 -1 -76 -6 -113 -14 -113 -115 -3 -611 2 -615 6 -9 9 -22 1507 -14 1515 5 4 91 11 193 16 l184 8 7 33 c4 18 8 35 10 36 2 2 54 5 114 7 l110 4 5 -102 c3 -56 7 -104 10 -107 3 -3 44 -2 90 2 l85 7 2 147 c1 81 -2 150 -6 152 -4 3 -78 8 -164 12 -131 6 -157 10 -161 23 -2 9 -6 177 -8 374 l-3 357 160 6 c88 3 163 8 166 10 4 2 7 113 8 246 1 133 4 245 6 249 3 3 350 9 772 13 423 3 909 9 1081 12 l312 6 0 -231 0 -231 504 0 503 0 6 -82 c4 -46 7 -125 7 -175 l0 -93 115 0 c103 0 115 2 115 18 0 9 6 29 14 43 8 17 11 40 7 65 -6 35 -9 39 -39 42 l-32 3 0 150 c0 85 5 159 10 170 11 19 2 19 -515 19 l-525 0 0 230 0 230 -1255 0 c-690 0 -1255 -3 -1255 -7z"/>
<path d="M7476 4681 c-5 -8 -307 -11 -1082 -11 l-1074 0 0 -105 0 -105 -39 0 c-43 0 -59 -13 -42 -33 5 -7 11 -40 13 -72 l3 -60 123 0 124 0 5 90 c2 50 7 93 11 96 4 4 405 8 892 10 l885 4 3 -147 3 -148 100 0 100 0 -2 234 c-2 222 -7 274 -23 247z"/>
</g>
<g id="layer102" fill="#000000" stroke="none">
<path d="M1220 5263 c0 -5 0 -135 0 -290 l1 -282 -143 -3 -143 -3 -3 -472 -2 -473 -225 0 c-138 0 -226 4 -230 10 -16 26 -25 3 -25 -64 0 -51 4 -76 13 -79 9 -3 9 -7 -1 -19 -10 -12 -12 -184 -10 -821 2 -443 0 -803 -4 -800 -5 2 -8 -1 -8 -6 0 -8 124 -11 395 -11 l395 0 0 -75 0 -76 -147 2 -148 1 0 -538 0 -539 470 0 470 0 3 168 c1 92 -1 175 -6 183 -5 8 -6 -24 -4 -74 3 -54 0 -97 -7 -108 -8 -15 -10 8 -11 94 0 100 5 124 22 107 3 -3 390 -6 862 -6 l856 0 0 -269 0 -270 1635 0 1635 0 0 240 0 239 153 3 152 3 3 468 c1 257 -1 467 -6 467 -4 0 -13 -5 -18 -10 -7 -7 -62 -10 -145 -8 l-134 3 0 90 0 90 315 3 315 2 -2 818 c-2 555 -6 817 -13 816 -5 -1 -49 -2 -96 -2 -85 -2 -86 -2 -82 -25 4 -20 1 -23 -19 -19 -13 2 -84 1 -157 -3 l-135 -7 -3 -79 -3 -79 55 -1 c30 -1 102 -4 160 -8 l105 -6 9 -612 c5 -337 6 -619 3 -628 -6 -13 -108 -14 -995 -8 l-989 6 -4 -24 c-2 -13 -2 -51 1 -83 l5 -59 665 -5 c366 -2 666 -5 668 -7 2 -2 8 -63 13 -136 6 -74 13 -136 15 -139 3 -3 90 -6 194 -8 l188 -3 7 -82 c3 -45 5 -208 3 -362 l-3 -280 -191 3 -191 4 -6 -34 c-2 -18 -5 -105 -6 -193 -1 -87 -3 -160 -4 -162 -2 -1 -403 -5 -893 -9 l-891 -7 -6 778 c-4 428 -10 781 -13 784 -3 3 -174 7 -380 9 l-374 3 0 -29 c0 -16 -3 -50 -6 -76 l-7 -46 300 0 300 0 6 -38 c4 -20 7 -338 8 -707 l1 -670 -38 -6 c-22 -4 -241 -8 -489 -10 l-450 -4 -6 705 c-6 679 -6 706 12 723 15 14 19 33 19 87 0 65 -1 70 -24 76 -15 3 -26 14 -28 27 -3 19 -9 20 -78 18 -41 -1 -79 -6 -83 -10 -4 -4 -3 -250 3 -546 10 -446 9 -539 -2 -546 -7 -5 -80 -9 -163 -9 -316 -1 -1685 -29 -1695 -35 -6 -4 -10 -75 -10 -181 l0 -174 -310 0 -310 0 2 428 3 427 163 5 c89 3 162 8 162 13 0 4 0 158 0 342 l0 335 -52 2 -53 1 55 7 c47 6 43 7 -34 6 l-88 -1 -3 -50 c-1 -27 -4 -101 -5 -162 -1 -76 -6 -113 -14 -113 -115 -3 -611 2 -615 6 -9 9 -22 1507 -14 1515 5 4 91 11 191 15 119 4 185 11 187 18 2 6 6 23 9 39 6 27 7 27 94 29 70 1 79 2 47 8 -31 6 -26 7 23 4 34 -2 60 1 57 5 -3 5 4 7 15 4 18 -5 20 -14 20 -98 0 -52 3 -101 7 -111 4 -12 3 -15 -5 -10 -8 5 -12 41 -12 107 0 54 -3 99 -7 99 -9 0 -1 -205 7 -214 3 -3 44 -2 90 2 l85 7 1 130 c0 113 0 119 -5 45 l-7 -85 -4 103 c-5 92 1 127 13 87 4 -11 4 -10 3 2 -1 15 -14 19 -76 24 -41 4 -114 7 -162 8 -73 1 -87 4 -92 19 -2 9 -6 178 -8 375 l-3 357 160 6 c88 3 163 8 166 10 4 2 7 113 8 246 1 133 4 245 6 249 3 3 350 9 772 13 423 3 909 9 1081 12 l312 6 0 -231 0 -231 504 0 503 0 6 -82 c4 -46 7 -125 7 -175 l0 -93 115 0 c103 0 115 2 115 18 0 9 6 29 14 43 8 17 11 40 7 65 -6 35 -9 39 -39 42 l-32 3 0 150 c0 85 5 159 10 170 11 19 2 19 -515 19 l-525 0 0 230 0 230 -1255 0 c-690 0 -1255 -3 -1255 -7z m3600 -820 c0 -11 -3 -14 -8 -7 -4 6 -14 14 -22 17 -10 4 -8 6 8 6 15 1 22 -5 22 -16z m-3652 -640 c-21 -2 -55 -2 -75 0 -21 2 -4 4 37 4 41 0 58 -2 38 -4z m-140 -90 c-10 -2 -26 -2 -35 0 -10 3 -2 5 17 5 19 0 27 -2 18 -5z m6379 -160 c-20 -2 -52 -2 -70 0 -17 2 0 4 38 4 39 0 53 -2 32 -4z m-6024 -34 c-5 -5 -34 -8 -64 -6 l-54 3 58 2 c36 1 57 6 57 14 0 6 3 8 7 5 4 -4 2 -12 -4 -18z"/>
<path d="M7476 4681 c-5 -8 -307 -11 -1082 -11 l-1074 0 0 -105 0 -105 -39 0 c-43 0 -59 -13 -42 -33 5 -7 11 -40 13 -72 l3 -60 123 0 124 0 5 90 c2 50 7 93 11 96 4 4 405 8 892 10 l885 4 3 -147 3 -148 100 0 100 0 -2 234 c-2 222 -7 274 -23 247z m-549 -28 c-296 -2 -778 -2 -1070 0 -293 1 -50 2 538 2 589 0 828 -1 532 -2z"/>
<path d="M1236 3082 c-3 -3 -6 -54 -6 -113 0 -105 1 -109 23 -114 28 -6 72 -8 120 -7 34 2 37 4 37 32 l0 30 1074 0 1074 0 6 -31 c3 -17 6 -52 6 -76 l0 -45 75 5 c42 2 77 6 79 8 2 2 5 69 7 148 l4 144 -300 -2 c-165 0 -686 -4 -1158 -7 -764 -6 -859 -5 -870 8 -12 16 -159 33 -171 20z"/>
</g>
<g id="layer103" fill="#d0ced1" stroke="none">
<path d="M1219 5266 c-2 -2 -2 -134 1 -293 l5 -288 -145 0 -145 0 0 -475 0 -475 -30 -1 c-16 0 -126 -2 -242 -3 l-213 -2 0 -50 c0 -28 3 -48 7 -46 5 3 7 -365 5 -816 -2 -452 0 -832 3 -844 l5 -23 380 0 c373 0 380 0 380 20 0 11 5 20 10 20 6 0 10 -9 10 -20 0 -11 -4 -20 -10 -20 -15 0 -13 -143 2 -158 7 -7 9 -13 5 -13 -4 -1 -11 -3 -17 -4 -5 -1 -68 -3 -140 -4 l-130 -1 0 -510 0 -510 418 -1 c393 -1 464 0 469 5 6 6 6 60 -2 199 l-7 147 881 0 c586 0 880 -3 876 -10 -3 -5 -1 -10 4 -10 8 0 11 -85 11 -265 l0 -265 620 0 c341 0 620 3 620 8 0 4 448 6 995 4 798 -2 995 0 996 10 0 7 4 4 9 -7 5 -12 9 78 9 222 l1 242 153 3 152 3 3 448 c2 355 0 447 -10 445 -7 -2 -13 4 -13 12 0 8 6 14 13 13 6 -2 12 2 12 7 0 13 -13 13 -26 0 -7 -7 -62 -10 -145 -8 l-134 3 -9 42 c-5 24 -5 62 0 90 l9 48 302 3 303 2 5 23 c3 12 7 326 8 699 l2 676 -75 4 c-59 4 -78 2 -87 -10 -10 -12 -13 -89 -11 -316 1 -189 4 -277 9 -236 4 36 6 -101 4 -303 -2 -221 -7 -373 -12 -378 -6 -6 -242 -11 -619 -13 -360 -2 -495 0 -329 3 214 5 124 7 -380 8 -363 1 -654 -1 -648 -4 10 -4 10 -7 0 -17 -7 -8 -11 -33 -9 -69 l4 -57 661 -2 c588 -2 621 -3 292 -8 l-370 -6 380 1 381 0 -3 -30 c-3 -25 -2 -27 6 -10 7 14 10 -9 10 -80 0 -161 0 -164 36 -171 17 -3 108 -4 204 -2 l173 3 -4 -357 c-3 -404 -2 -394 -73 -378 -58 14 -334 13 -315 -1 11 -7 12 -12 3 -15 -7 -3 -9 -12 -6 -21 4 -10 2 -14 -4 -10 -8 5 -12 -43 -13 -162 0 -107 3 -170 9 -173 6 -1 -393 -4 -887 -6 -493 -2 -906 -5 -917 -8 -11 -2 -14 -1 -7 2 9 4 12 93 12 393 0 410 -11 1183 -17 1166 -2 -6 -88 -8 -245 -5 l-243 5 215 5 c201 5 193 6 -132 8 l-348 2 0 -26 c0 -14 4 -23 9 -20 5 4 7 -3 4 -14 -3 -11 -9 -23 -14 -26 -5 -3 -9 -18 -9 -34 l0 -30 310 7 c241 5 310 4 310 -6 0 -7 -4 -9 -10 -6 -6 4 -10 -6 -9 -22 0 -25 1 -26 9 -8 5 12 7 -276 4 -680 l-5 -700 -37 -6 c-75 -13 -930 -20 -937 -8 -4 6 -9 297 -11 647 -2 351 -5 667 -7 704 -2 37 -1 67 2 66 22 -2 28 5 24 30 -3 24 -2 25 7 7 8 -15 9 -6 7 39 -3 43 -9 63 -23 74 -18 13 -18 14 6 8 22 -6 22 -5 7 4 -10 7 -25 9 -34 6 -12 -5 -14 -1 -9 18 3 14 2 28 -4 31 -6 4 -7 -1 -3 -11 4 -12 3 -15 -6 -10 -19 12 -139 18 -145 7 -3 -5 4 -7 16 -5 l23 5 -22 -12 c-22 -12 -23 -17 -21 -128 1 -99 2 -108 9 -61 4 30 6 -91 4 -270 -1 -179 1 -309 5 -290 5 21 8 -39 7 -148 -1 -101 1 -173 5 -160 4 14 6 17 7 6 1 -23 -11 -51 -18 -41 -3 4 -123 6 -266 3 -252 -4 -255 -5 -110 -10 83 -3 -46 -5 -285 -4 -270 1 -386 -1 -305 -6 79 -4 -37 -6 -295 -5 -234 2 -391 -1 -350 -5 63 -6 50 -7 -78 -7 -84 -1 -156 -4 -160 -8 -8 -8 -8 -10 -10 -188 -1 -96 -6 -146 -12 -142 -5 3 -10 2 -10 -4 0 -5 4 -11 10 -13 5 -2 -136 -3 -315 -3 l-325 0 0 421 c0 337 3 424 13 433 8 6 75 12 171 13 l157 3 -1 330 c0 381 7 355 -103 355 -52 0 -66 3 -61 13 4 6 3 8 -1 4 -5 -4 -10 -72 -12 -150 -2 -78 -5 -147 -8 -154 -2 -7 0 -15 5 -18 33 -20 -9 -25 -212 -23 l-223 2 205 6 c199 6 196 6 -103 7 -170 1 -312 5 -315 9 -4 4 -1 4 5 0 10 -5 12 7 8 51 -2 32 -7 374 -10 761 -4 559 -3 703 7 707 7 2 94 8 193 12 l180 8 -3 34 c-3 24 0 31 8 26 9 -5 10 -1 6 13 -9 26 10 30 145 32 l106 1 7 -32 c3 -17 6 -65 6 -106 l0 -74 68 3 67 3 3 131 3 131 -161 5 c-144 4 -198 13 -162 25 6 3 12 9 12 14 0 6 -4 8 -9 5 -5 -3 -8 152 -7 352 0 196 -3 368 -7 382 -5 15 -5 20 0 13 7 -10 37 -12 114 -8 57 3 131 6 163 8 43 1 60 6 63 17 4 13 3 13 -6 0 -9 -12 -11 -10 -11 13 0 15 5 27 10 27 6 0 10 80 10 220 0 168 3 222 13 225 6 2 491 8 1077 14 586 5 1072 11 1080 13 8 3 12 3 8 1 -5 -3 -8 -109 -8 -236 0 -154 4 -227 10 -217 5 8 10 11 10 5 0 -7 173 -9 505 -7 l505 2 -2 -52 -1 -53 -7 45 c-6 32 -7 22 -4 -35 2 -44 5 -123 6 -175 l2 -95 6 70 6 70 2 -62 2 -62 104 -3 c57 -2 102 0 100 4 -2 4 5 23 16 43 11 19 20 39 20 43 0 4 -5 -1 -11 -10 -17 -30 -30 -20 -27 20 3 33 0 37 -22 40 l-25 3 5 167 c3 92 9 174 13 182 5 9 2 8 -6 -2 -9 -11 -17 -14 -24 -7 -6 6 -196 9 -514 9 l-504 0 3 225 c1 124 -1 225 -5 224 -25 -4 -34 4 -13 11 14 4 -420 7 -965 7 l-990 -2 965 -5 965 -5 -1235 0 c-679 -1 -1147 2 -1040 5 l195 6 -191 2 c-105 1 -193 0 -195 -2z m1674 -153 c-40 -2 -106 -2 -145 0 -40 1 -8 3 72 3 80 0 112 -2 73 -3z m-1946 -1075 c-1 -112 -2 -21 -2 202 0 223 1 314 2 203 2 -112 2 -294 0 -405z m236 545 c-13 -2 -33 -2 -45 0 -13 2 -3 4 22 4 25 0 35 -2 23 -4z m-236 -810 c-3 -10 -5 -2 -5 17 0 19 2 27 5 18 2 -10 2 -26 0 -35z m-4 -140 c-13 -2 -33 -2 -45 0 -13 2 -3 4 22 4 25 0 35 -2 23 -4z m-215 -10 c-15 -2 -42 -2 -60 0 -18 2 -6 4 27 4 33 0 48 -2 33 -4z m-151 -1065 c-1 -90 -3 -17 -3 162 0 179 2 252 3 163 2 -90 2 -236 0 -325z m6291 -409 c-2 -6 -8 -10 -13 -10 -5 0 -11 4 -13 10 -2 6 4 11 13 11 9 0 15 -5 13 -11z m-3 -210 c-8 -12 -45 -12 -45 0 0 10 30 20 43 14 4 -3 5 -9 2 -14z m-3128 -161 c-2 -13 -4 -3 -4 22 0 25 2 35 4 23 2 -13 2 -33 0 -45z m-2489 -65 c-107 -2 -168 -7 -168 -14 0 -6 -4 -7 -10 -4 -32 20 5 25 168 23 l177 -2 -167 -3z m5685 -610 c-18 -2 -48 -2 -65 0 -18 2 -4 4 32 4 36 0 50 -2 33 -4z m227 -53 c0 -6 -40 -9 -102 -8 l-103 2 100 6 c55 3 101 7 103 8 1 1 2 -2 2 -8z m-453 -133 c-2 -23 -3 -1 -3 48 0 50 1 68 3 42 2 -26 2 -67 0 -90z m221 126 c-10 -2 -26 -2 -35 0 -10 3 -2 5 17 5 19 0 27 -2 18 -5z m-3045 -360 c-24 -2 -62 -2 -85 0 -24 2 -5 4 42 4 47 0 66 -2 43 -4z"/>
<path d="M7474 4680 c-6 -6 -336 -11 -939 -13 l-930 -2 943 0 c830 0 942 -2 943 -15 0 -10 2 -11 5 -3 8 19 -10 45 -22 33z"/>
<path d="M5320 4555 l0 -95 -39 0 c-43 0 -61 -15 -41 -33 10 -9 12 -8 7 6 -4 11 -1 17 8 17 12 0 15 -15 13 -77 l-1 -78 -7 55 -7 55 1 -55 1 -55 114 -3 c125 -3 152 1 133 20 -7 7 -11 38 -11 73 2 56 2 58 9 20 l7 -40 2 52 c0 28 3 57 6 65 4 11 104 13 565 9 440 -2 560 -1 560 9 0 10 74 12 334 9 184 -2 331 -6 327 -9 -3 -3 -4 -72 -1 -155 3 -82 7 -144 8 -137 1 7 6 11 10 8 4 -2 39 -7 77 -11 50 -4 71 -2 77 7 4 7 8 106 8 219 l0 206 -1060 7 c-583 4 -1064 5 -1070 1 -6 -3 -10 -49 -10 -106 0 -96 -1 -99 -22 -98 -17 1 -19 2 -5 6 15 4 17 18 17 104 0 54 -2 99 -5 99 -3 0 -5 -43 -5 -95z"/>
<path d="M7494 4400 c0 -113 2 -159 3 -102 2 56 2 148 0 205 -1 56 -3 10 -3 -103z"/>
<path d="M1157 3813 c18 -2 50 -2 70 0 21 2 7 4 -32 4 -38 0 -55 -2 -38 -4z"/>
<path d="M7300 3757 c0 -7 5 -18 11 -24 8 -8 8 -13 0 -17 -6 -4 -11 -2 -11 3 0 13 -70 14 -212 4 l-96 -6 0 -67 c0 -38 -2 -72 -5 -77 -3 -4 24 -6 60 -5 43 3 68 0 73 -8 5 -8 54 -10 187 -4 l180 7 -4 96 c-2 53 -6 97 -8 100 -7 7 -144 3 -156 -5 -8 -4 -9 -3 -5 4 4 7 2 12 -3 12 -6 0 -11 -6 -11 -13z"/>
<path d="M1394 3675 c0 -49 1 -71 3 -48 2 23 2 64 0 90 -2 26 -3 8 -3 -42z"/>
<path d="M1028 3703 c23 -2 61 -2 85 0 23 2 4 4 -43 4 -47 0 -66 -2 -42 -4z"/>
<path d="M1208 3638 c4 -125 9 -137 10 -30 1 56 -1 102 -5 102 -5 0 -7 -33 -5 -72z"/>
<path d="M1355 3510 l-40 -7 37 -2 c20 0 40 4 43 9 3 6 5 9 3 9 -2 -1 -21 -5 -43 -9z"/>
<path d="M1236 3083 c-3 -4 -6 -55 -6 -114 0 -105 1 -109 23 -114 29 -6 72 -8 121 -7 37 2 38 3 34 35 l-3 32 337 -3 c226 -2 338 1 338 8 0 5 7 10 15 10 8 0 15 -5 15 -10 0 -7 241 -9 728 -8 l728 3 -3 -25 c-3 -22 -2 -23 6 -5 7 15 10 5 10 -42 l1 -63 63 0 c46 0 58 -3 47 -11 -11 -8 -9 -9 10 -3 14 3 26 7 26 8 1 0 3 65 5 144 l4 144 -575 -2 c-316 -2 -841 -5 -1166 -9 -469 -5 -590 -3 -587 6 3 7 -1 15 -8 17 -25 8 -157 15 -163 9z m327 -50 c-24 -2 -62 -2 -85 0 -24 2 -5 4 42 4 47 0 66 -2 43 -4z"/>
<path d="M3598 2763 c12 -2 32 -2 45 0 12 2 2 4 -23 4 -25 0 -35 -2 -22 -4z"/>
<path d="M1143 1793 c15 -2 37 -2 50 0 12 2 0 4 -28 4 -27 0 -38 -2 -22 -4z"/>
<path d="M935 1250 l0 -525 470 0 470 0 0 170 1 170 -3 -167 -3 -168 -465 0 -465 0 -3 523 -2 522 0 -525z"/>
<path d="M1704 1075 c0 -66 1 -92 3 -57 2 34 2 88 0 120 -2 31 -3 3 -3 -63z"/>
</g>
<g id="layer104" fill="#fbf9fc" stroke="none">
<path d="M1338 5263 c34 -2 90 -2 125 0 34 2 6 3 -63 3 -69 0 -97 -1 -62 -3z"/>
<path d="M2278 5263 c261 -2 684 -2 940 0 257 1 44 2 -473 2 -517 0 -727 -1 -467 -2z"/>
<path d="M1238 4963 l-3 -288 -142 -3 -143 -3 0 -469 0 -470 -237 -2 -238 -3 -3 -877 -2 -878 380 0 c331 0 380 2 380 15 0 8 5 15 10 15 6 0 10 -45 10 -115 l0 -115 -145 0 -145 0 0 -510 0 -510 444 0 444 0 -2 173 c0 94 2 173 7 175 4 1 401 2 882 2 l875 0 0 -265 0 -265 663 -2 c364 -2 1090 -3 1612 -3 l950 0 3 242 2 242 153 3 152 3 0 435 0 435 -170 5 c-149 4 -167 7 -146 19 23 13 23 16 19 115 l-5 101 310 -3 c245 -2 312 0 318 10 10 15 12 1328 3 1352 -5 13 -21 16 -81 16 l-75 0 6 -177 c3 -98 7 -382 8 -632 l3 -454 -992 2 -993 2 0 -65 0 -66 669 0 669 0 7 -103 c8 -129 13 -165 20 -177 4 -6 84 -10 196 -10 l189 0 0 -183 c0 -101 3 -272 7 -380 l6 -197 -196 0 c-181 0 -197 -1 -197 -17 0 -231 -6 -363 -17 -367 -7 -3 -420 -8 -918 -12 l-905 -7 0 344 c0 189 -3 543 -7 787 l-6 442 -357 0 -357 0 -7 -51 c-4 -28 -5 -53 -3 -56 3 -2 137 -7 300 -10 l295 -6 7 -713 c4 -392 5 -719 2 -727 -4 -11 -46 -14 -203 -15 -110 -1 -334 -5 -500 -8 l-301 -7 -6 379 c-4 208 -8 536 -8 728 -2 313 0 350 15 358 12 7 16 24 16 73 0 59 -2 65 -21 65 -13 0 -23 8 -26 20 -5 19 -12 21 -67 18 l-61 -3 5 -375 c3 -206 5 -454 5 -550 l0 -175 -140 -2 c-77 -2 -408 -7 -735 -13 -327 -6 -684 -10 -792 -10 l-198 0 0 -174 c0 -108 -4 -177 -10 -181 -6 -4 -155 -6 -333 -6 l-322 1 -3 445 -3 445 165 0 165 0 6 43 c3 23 5 170 3 327 l-3 285 -63 9 c-34 5 -65 6 -69 3 -3 -4 -8 -64 -10 -134 -2 -71 -6 -143 -9 -161 l-5 -33 -330 1 -329 1 -4 22 c-3 12 -7 362 -10 779 -4 671 -3 757 10 762 9 3 57 6 107 7 51 1 133 4 182 8 l90 6 5 40 5 40 138 3 137 3 0 -106 0 -105 43 1 c73 2 91 11 90 44 0 17 -1 74 -2 127 l-1 98 -159 2 -160 3 -5 189 c-3 104 -6 282 -6 395 l-2 206 154 8 c84 4 159 9 165 12 10 3 13 67 15 252 l3 248 165 2 c617 9 2025 21 2032 17 4 -3 8 -106 8 -230 l0 -224 505 0 505 0 1 -37 c1 -21 4 -101 8 -178 l6 -140 75 -3 c116 -5 120 -3 120 68 0 57 -1 59 -27 62 l-28 3 -2 169 c-1 93 -4 170 -6 172 -2 2 -228 4 -503 4 -274 0 -505 4 -511 8 -9 6 -13 67 -15 227 l-3 220 -1232 3 -1233 2 -2 -287z"/>
<path d="M2978 5103 c56 -2 148 -2 205 0 56 1 10 3 -103 3 -113 0 -159 -2 -102 -3z"/>
<path d="M1858 5093 c56 -2 148 -2 205 0 56 1 10 3 -103 3 -113 0 -159 -2 -102 -3z"/>
<path d="M1383 4710 c0 -41 2 -58 4 -37 2 20 2 54 0 75 -2 20 -4 3 -4 -38z"/>
<path d="M935 4200 c0 -245 1 -345 2 -223 2 123 2 323 0 445 -1 123 -2 23 -2 -222z"/>
<path d="M4573 4590 c0 -30 2 -43 4 -27 2 15 2 39 0 55 -2 15 -4 2 -4 -28z"/>
<path d="M5340 4534 l0 -105 -32 3 -33 3 0 -60 0 -60 105 0 105 0 2 60 c2 33 5 74 8 91 l5 31 83 6 c45 4 453 7 907 8 l825 2 5 -149 5 -149 73 -3 72 -3 0 216 0 215 -1065 0 -1065 0 0 -106z"/>
<path d="M7494 4405 c0 -110 2 -156 3 -103 2 53 2 143 0 200 -1 57 -3 13 -3 -97z"/>
<path d="M1097 4573 c18 -2 50 -2 70 0 21 2 7 4 -32 4 -38 0 -55 -2 -38 -4z"/>
<path d="M6398 4493 c45 -2 119 -2 165 0 45 1 8 3 -83 3 -91 0 -128 -2 -82 -3z"/>
<path d="M5502 4400 c0 -19 2 -27 5 -17 2 9 2 25 0 35 -3 9 -5 1 -5 -18z"/>
<path d="M1053 4320 c0 -47 2 -66 4 -42 2 23 2 61 0 85 -2 23 -4 4 -4 -43z"/>
<path d="M7324 3743 c-2 -7 -6 -20 -9 -29 -3 -8 -10 -12 -16 -8 -13 8 -156 6 -241 -3 l-58 -6 0 -58 c0 -32 3 -60 8 -62 4 -3 111 -6 237 -8 l230 -4 1 85 c0 47 -1 91 -4 98 -6 18 -142 14 -148 -5z"/>
<path d="M908 3623 c12 -2 30 -2 40 0 9 3 -1 5 -23 4 -22 0 -30 -2 -17 -4z"/>
<path d="M688 3613 c12 -2 32 -2 45 0 12 2 2 4 -23 4 -25 0 -35 -2 -22 -4z"/>
<path d="M584 3000 c0 -69 1 -97 3 -62 2 34 2 90 0 125 -2 34 -3 6 -3 -63z"/>
<path d="M1257 3063 c-4 -3 -7 -48 -7 -100 l0 -93 69 0 c69 0 70 0 73 28 l3 27 1091 3 1092 2 6 -22 c3 -13 6 -47 6 -77 l0 -53 55 4 c30 3 58 7 61 11 3 3 8 60 11 126 5 99 3 121 -8 122 -41 3 -1061 -2 -1641 -8 -593 -5 -668 -4 -668 9 0 11 -14 17 -46 22 -60 8 -89 8 -97 -1z"/>
<path d="M2518 3053 c67 -2 177 -2 245 0 67 1 12 3 -123 3 -135 0 -190 -2 -122 -3z"/>
<path d="M1478 3043 c23 -2 61 -2 85 0 23 2 4 4 -43 4 -47 0 -66 -2 -42 -4z"/>
<path d="M7313 2980 c0 -36 2 -50 4 -32 2 17 2 47 0 65 -2 17 -4 3 -4 -33z"/>
<path d="M3733 2995 c0 -22 2 -30 4 -17 2 12 2 30 0 40 -3 9 -5 -1 -4 -23z"/>
<path d="M6132 2293 c92 -2 245 -2 340 0 95 1 20 3 -167 3 -187 0 -265 -2 -173 -3z"/>
<path d="M4623 2283 c37 -2 97 -2 135 0 37 2 6 3 -68 3 -74 0 -105 -1 -67 -3z"/>
<path d="M5458 2133 c12 -2 32 -2 45 0 12 2 2 4 -23 4 -25 0 -35 -2 -22 -4z"/>
<path d="M5718 2133 c23 -2 61 -2 85 0 23 2 4 4 -43 4 -47 0 -66 -2 -42 -4z"/>
<path d="M6078 2133 c89 -2 235 -2 325 0 89 1 16 3 -163 3 -179 0 -252 -2 -162 -3z"/>
<path d="M1078 2073 c23 -2 61 -2 85 0 23 2 4 4 -43 4 -47 0 -66 -2 -42 -4z"/>
<path d="M6798 1843 c45 -2 119 -2 165 0 45 1 8 3 -83 3 -91 0 -128 -2 -82 -3z"/>
<path d="M3743 1760 c0 -47 2 -66 4 -42 2 23 2 61 0 85 -2 23 -4 4 -4 -43z"/>
<path d="M7083 1800 c0 -25 2 -35 4 -22 2 12 2 32 0 45 -2 12 -4 2 -4 -23z"/>
<path d="M935 1250 c0 -289 1 -407 2 -262 2 144 2 380 0 525 -1 144 -2 26 -2 -263z"/>
<path d="M4894 1640 c0 -69 1 -97 3 -62 2 34 2 90 0 125 -2 34 -3 6 -3 -63z"/>
<path d="M1087 1703 c-3 -5 38 -7 91 -5 179 5 198 8 55 10 -78 1 -144 -1 -146 -5z"/>
<path d="M3572 1570 c0 -19 2 -27 5 -17 2 9 2 25 0 35 -3 9 -5 1 -5 -18z"/>
<path d="M7164 1260 c0 -102 2 -143 3 -92 2 50 2 134 0 185 -1 50 -3 9 -3 -93z"/>
<path d="M3093 1223 c20 -2 54 -2 75 0 20 2 3 4 -38 4 -41 0 -58 -2 -37 -4z"/>
<path d="M2533 1213 c32 -2 81 -2 110 0 29 2 3 3 -58 3 -60 0 -84 -1 -52 -3z"/>
<path d="M1943 1203 c26 -2 68 -2 95 0 26 2 4 3 -48 3 -52 0 -74 -1 -47 -3z"/>
<path d="M1702 1160 c0 -19 2 -27 5 -17 2 9 2 25 0 35 -3 9 -5 1 -5 -18z"/>
<path d="M6873 1113 c26 -2 67 -2 90 0 23 2 2 3 -48 3 -49 0 -68 -1 -42 -3z"/>
<path d="M6694 925 c0 -71 1 -99 3 -62 2 37 2 96 0 130 -2 34 -3 4 -3 -68z"/>
<path d="M6883 1033 c15 -2 39 -2 55 0 15 2 2 4 -28 4 -30 0 -43 -2 -27 -4z"/>
<path d="M4733 880 c0 -47 2 -66 4 -42 2 23 2 61 0 85 -2 23 -4 4 -4 -43z"/>
<path d="M4700 720 l-35 -7 32 -2 c17 0 35 4 38 9 3 6 5 9 3 9 -2 -1 -19 -5 -38 -9z"/>
<path d="M6098 723 c56 -2 148 -2 205 0 56 1 10 3 -103 3 -113 0 -159 -2 -102 -3z"/>
<path d="M4118 703 c23 -2 61 -2 85 0 23 2 4 4 -43 4 -47 0 -66 -2 -42 -4z"/>
</g>


</svg>